<mxfile host="app.diagrams.net" modified="2022-03-24T16:55:05.243Z" agent="5.0 (X11)" etag="Zq9L8_8NqURu_-LvgNhS" version="17.2.1" type="github">
  <diagram id="xAfiQOlDxEpFhG1-PbyF" name="Page-1">
    <mxGraphModel dx="1368" dy="785" grid="1" gridSize="10" guides="1" tooltips="1" connect="1" arrows="1" fold="1" page="1" pageScale="1" pageWidth="827" pageHeight="1169" math="0" shadow="0">
      <root>
        <mxCell id="0" />
        <mxCell id="1" parent="0" />
        <mxCell id="N6eNg1ogxKIC6ddjf8hl-3" style="edgeStyle=orthogonalEdgeStyle;rounded=0;orthogonalLoop=1;jettySize=auto;html=1;entryX=0.5;entryY=0;entryDx=0;entryDy=0;" edge="1" parent="1" source="N6eNg1ogxKIC6ddjf8hl-1" target="N6eNg1ogxKIC6ddjf8hl-2">
          <mxGeometry relative="1" as="geometry" />
        </mxCell>
        <mxCell id="N6eNg1ogxKIC6ddjf8hl-4" value="/os_cloud_node/points" style="edgeLabel;html=1;align=center;verticalAlign=middle;resizable=0;points=[];" vertex="1" connectable="0" parent="N6eNg1ogxKIC6ddjf8hl-3">
          <mxGeometry x="-0.2086" y="-3" relative="1" as="geometry">
            <mxPoint x="7" y="1" as="offset" />
          </mxGeometry>
        </mxCell>
        <mxCell id="N6eNg1ogxKIC6ddjf8hl-1" value="Ouster Lidar" style="rounded=0;whiteSpace=wrap;html=1;" vertex="1" parent="1">
          <mxGeometry x="240" y="120" width="120" height="60" as="geometry" />
        </mxCell>
        <mxCell id="N6eNg1ogxKIC6ddjf8hl-15" style="edgeStyle=orthogonalEdgeStyle;rounded=0;orthogonalLoop=1;jettySize=auto;html=1;entryX=0.5;entryY=0;entryDx=0;entryDy=0;" edge="1" parent="1" source="N6eNg1ogxKIC6ddjf8hl-2" target="N6eNg1ogxKIC6ddjf8hl-21">
          <mxGeometry relative="1" as="geometry">
            <mxPoint x="300" y="440" as="targetPoint" />
          </mxGeometry>
        </mxCell>
        <mxCell id="N6eNg1ogxKIC6ddjf8hl-19" style="edgeStyle=orthogonalEdgeStyle;rounded=0;orthogonalLoop=1;jettySize=auto;html=1;dashed=1;" edge="1" parent="1">
          <mxGeometry relative="1" as="geometry">
            <mxPoint x="224" y="269.5000000000001" as="sourcePoint" />
            <mxPoint x="137" y="269.5" as="targetPoint" />
          </mxGeometry>
        </mxCell>
        <mxCell id="N6eNg1ogxKIC6ddjf8hl-2" value="Distance Filter" style="rounded=0;whiteSpace=wrap;html=1;" vertex="1" parent="1">
          <mxGeometry x="240" y="240" width="120" height="60" as="geometry" />
        </mxCell>
        <mxCell id="N6eNg1ogxKIC6ddjf8hl-26" style="edgeStyle=orthogonalEdgeStyle;rounded=0;orthogonalLoop=1;jettySize=auto;html=1;entryX=0.5;entryY=0;entryDx=0;entryDy=0;" edge="1" parent="1" source="N6eNg1ogxKIC6ddjf8hl-6" target="N6eNg1ogxKIC6ddjf8hl-8">
          <mxGeometry relative="1" as="geometry" />
        </mxCell>
        <mxCell id="N6eNg1ogxKIC6ddjf8hl-27" value="Driveable Surface" style="edgeLabel;html=1;align=center;verticalAlign=middle;resizable=0;points=[];" vertex="1" connectable="0" parent="N6eNg1ogxKIC6ddjf8hl-26">
          <mxGeometry x="-0.2977" y="1" relative="1" as="geometry">
            <mxPoint x="-1" y="-1" as="offset" />
          </mxGeometry>
        </mxCell>
        <mxCell id="N6eNg1ogxKIC6ddjf8hl-6" value="Classification" style="rounded=0;whiteSpace=wrap;html=1;" vertex="1" parent="1">
          <mxGeometry x="240" y="600" width="120" height="60" as="geometry" />
        </mxCell>
        <mxCell id="N6eNg1ogxKIC6ddjf8hl-8" value="MoveBase" style="rounded=0;whiteSpace=wrap;html=1;" vertex="1" parent="1">
          <mxGeometry x="240" y="720" width="120" height="60" as="geometry" />
        </mxCell>
        <mxCell id="N6eNg1ogxKIC6ddjf8hl-16" value="/distance_filter_points" style="edgeLabel;html=1;align=center;verticalAlign=middle;resizable=0;points=[];" vertex="1" connectable="0" parent="1">
          <mxGeometry x="300" y="329.99857142857144" as="geometry" />
        </mxCell>
        <mxCell id="N6eNg1ogxKIC6ddjf8hl-17" value="&lt;div&gt;RVIZ&lt;/div&gt;" style="rounded=0;whiteSpace=wrap;html=1;" vertex="1" parent="1">
          <mxGeometry x="10" y="120" width="120" height="840" as="geometry" />
        </mxCell>
        <mxCell id="N6eNg1ogxKIC6ddjf8hl-23" style="edgeStyle=orthogonalEdgeStyle;rounded=0;orthogonalLoop=1;jettySize=auto;html=1;entryX=0.5;entryY=0;entryDx=0;entryDy=0;" edge="1" parent="1" source="N6eNg1ogxKIC6ddjf8hl-21" target="N6eNg1ogxKIC6ddjf8hl-22">
          <mxGeometry relative="1" as="geometry" />
        </mxCell>
        <mxCell id="N6eNg1ogxKIC6ddjf8hl-21" value="Angle Filter" style="rounded=0;whiteSpace=wrap;html=1;" vertex="1" parent="1">
          <mxGeometry x="240" y="360" width="120" height="60" as="geometry" />
        </mxCell>
        <mxCell id="N6eNg1ogxKIC6ddjf8hl-25" style="edgeStyle=orthogonalEdgeStyle;rounded=0;orthogonalLoop=1;jettySize=auto;html=1;" edge="1" parent="1" source="N6eNg1ogxKIC6ddjf8hl-22" target="N6eNg1ogxKIC6ddjf8hl-6">
          <mxGeometry relative="1" as="geometry" />
        </mxCell>
        <mxCell id="N6eNg1ogxKIC6ddjf8hl-22" value="Voxel Filter" style="rounded=0;whiteSpace=wrap;html=1;" vertex="1" parent="1">
          <mxGeometry x="240" y="480" width="120" height="60" as="geometry" />
        </mxCell>
        <mxCell id="N6eNg1ogxKIC6ddjf8hl-31" style="edgeStyle=orthogonalEdgeStyle;rounded=0;orthogonalLoop=1;jettySize=auto;html=1;entryX=1;entryY=0.5;entryDx=0;entryDy=0;" edge="1" parent="1" source="N6eNg1ogxKIC6ddjf8hl-30" target="N6eNg1ogxKIC6ddjf8hl-8">
          <mxGeometry relative="1" as="geometry" />
        </mxCell>
        <mxCell id="N6eNg1ogxKIC6ddjf8hl-30" value="Desired Location" style="rounded=0;whiteSpace=wrap;html=1;" vertex="1" parent="1">
          <mxGeometry x="440" y="600" width="120" height="60" as="geometry" />
        </mxCell>
      </root>
    </mxGraphModel>
  </diagram>
</mxfile>
